<?xml version="1.0" encoding="us-ascii" standalone="no"?><svg xmlns="http://www.w3.org/2000/svg" xmlns:xlink="http://www.w3.org/1999/xlink" contentStyleType="text/css" height="861px" preserveAspectRatio="none" style="width:1211px;height:861px;background:#FFFFFF;" version="1.1" viewBox="0 0 1211 861" width="1211px" zoomAndPan="magnify"><defs/><g><!--cluster Library-Facade--><g id="cluster_Library-Facade"><path d="M261,6 L379,6 A3.75,3.75 0 0 1 381.5,8.5 L388.5,28.2969 L606,28.2969 A2.5,2.5 0 0 1 608.5,30.7969 L608.5,424.5 A2.5,2.5 0 0 1 606,427 L261,427 A2.5,2.5 0 0 1 258.5,424.5 L258.5,8.5 A2.5,2.5 0 0 1 261,6 " fill="none" style="stroke:#000000;stroke-width:1.5;"/><line style="stroke:#000000;stroke-width:1.5;" x1="258.5" x2="388.5" y1="28.2969" y2="28.2969"/><text fill="#000000" font-family="sans-serif" font-size="14" font-weight="bold" lengthAdjust="spacing" textLength="117" x="262.5" y="20.9951">Library-Facade</text></g><!--cluster Library-Implementation--><g id="cluster_Library-Implementation"><path d="M492,476 L675,476 A3.75,3.75 0 0 1 677.5,478.5 L684.5,498.2969 L897,498.2969 A2.5,2.5 0 0 1 899.5,500.7969 L899.5,779.5 A2.5,2.5 0 0 1 897,782 L492,782 A2.5,2.5 0 0 1 489.5,779.5 L489.5,478.5 A2.5,2.5 0 0 1 492,476 " fill="none" style="stroke:#000000;stroke-width:1.5;"/><line style="stroke:#000000;stroke-width:1.5;" x1="489.5" x2="684.5" y1="498.2969" y2="498.2969"/><text fill="#000000" font-family="sans-serif" font-size="14" font-weight="bold" lengthAdjust="spacing" textLength="182" x="493.5" y="490.9951">Library-Implementation</text></g><!--class ILib--><g id="elem_ILib"><rect codeLine="3" fill="#F1F1F1" height="64.2969" id="ILib" rx="2.5" ry="2.5" style="stroke:#181818;stroke-width:0.5;" width="251" x="275" y="347"/><ellipse cx="384.25" cy="363" fill="#A9DCDF" rx="11" ry="11" style="stroke:#181818;stroke-width:1.0;"/><path d="M384.3594,358.3438 L383.2031,363.4219 L385.5313,363.4219 L384.3594,358.3438 Z M382.875,356.1094 L385.8594,356.1094 L389.2188,368.5 L386.7656,368.5 L386,365.4375 L382.7188,365.4375 L381.9688,368.5 L379.5313,368.5 L382.875,356.1094 Z " fill="#000000"/><text fill="#000000" font-family="sans-serif" font-size="14" font-style="italic" lengthAdjust="spacing" textLength="24" x="404.75" y="367.8467">ILib</text><line style="stroke:#181818;stroke-width:0.5;" x1="276" x2="525" y1="379" y2="379"/><line style="stroke:#181818;stroke-width:0.5;" x1="276" x2="525" y1="387" y2="387"/><ellipse cx="286" cy="400.6484" fill="#84BE84" rx="3" ry="3" style="stroke:#038048;stroke-width:1.0;"/><text fill="#000000" font-family="sans-serif" font-size="14" font-style="italic" lengthAdjust="spacing" textLength="225" x="295" y="403.9951">bool libcall(LibraryContextPtr ctx)</text></g><!--class LibraryContext--><g id="elem_LibraryContext"><rect codeLine="7" fill="#F1F1F1" height="48" id="LibraryContext" rx="2.5" ry="2.5" style="stroke:#181818;stroke-width:0.5;" width="130" x="395.5" y="218.5"/><ellipse cx="410.5" cy="234.5" fill="#ADD1B2" rx="11" ry="11" style="stroke:#181818;stroke-width:1.0;"/><path d="M413.4688,240.1406 Q412.8906,240.4375 412.25,240.5781 Q411.6094,240.7344 410.9063,240.7344 Q408.4063,240.7344 407.0781,239.0938 Q405.7656,237.4375 405.7656,234.3125 Q405.7656,231.1875 407.0781,229.5313 Q408.4063,227.875 410.9063,227.875 Q411.6094,227.875 412.25,228.0313 Q412.9063,228.1875 413.4688,228.4844 L413.4688,231.2031 Q412.8438,230.625 412.25,230.3594 Q411.6563,230.0781 411.0313,230.0781 Q409.6875,230.0781 409,231.1563 Q408.3125,232.2188 408.3125,234.3125 Q408.3125,236.4063 409,237.4844 Q409.6875,238.5469 411.0313,238.5469 Q411.6563,238.5469 412.25,238.2813 Q412.8438,238 413.4688,237.4219 L413.4688,240.1406 Z " fill="#000000"/><text fill="#000000" font-family="sans-serif" font-size="14" lengthAdjust="spacing" textLength="98" x="424.5" y="239.3467">LibraryContext</text><line style="stroke:#181818;stroke-width:0.5;" x1="396.5" x2="524.5" y1="250.5" y2="250.5"/><line style="stroke:#181818;stroke-width:0.5;" x1="396.5" x2="524.5" y1="258.5" y2="258.5"/></g><!--class LibraryFacade--><g id="elem_LibraryFacade"><rect codeLine="10" fill="#F1F1F1" height="96.8906" id="LibraryFacade" rx="2.5" ry="2.5" style="stroke:#181818;stroke-width:0.5;" width="318" x="274.5" y="41"/><ellipse cx="382.25" cy="57" fill="#ADD1B2" rx="11" ry="11" style="stroke:#181818;stroke-width:1.0;"/><path d="M385.2188,62.6406 Q384.6406,62.9375 384,63.0781 Q383.3594,63.2344 382.6563,63.2344 Q380.1563,63.2344 378.8281,61.5938 Q377.5156,59.9375 377.5156,56.8125 Q377.5156,53.6875 378.8281,52.0313 Q380.1563,50.375 382.6563,50.375 Q383.3594,50.375 384,50.5313 Q384.6563,50.6875 385.2188,50.9844 L385.2188,53.7031 Q384.5938,53.125 384,52.8594 Q383.4063,52.5781 382.7813,52.5781 Q381.4375,52.5781 380.75,53.6563 Q380.0625,54.7188 380.0625,56.8125 Q380.0625,58.9063 380.75,59.9844 Q381.4375,61.0469 382.7813,61.0469 Q383.4063,61.0469 384,60.7813 Q384.5938,60.5 385.2188,59.9219 L385.2188,62.6406 Z " fill="#000000"/><text fill="#000000" font-family="sans-serif" font-size="14" lengthAdjust="spacing" textLength="94" x="402.75" y="61.8467">LibraryFacade</text><line style="stroke:#181818;stroke-width:0.5;" x1="275.5" x2="591.5" y1="73" y2="73"/><line style="stroke:#181818;stroke-width:0.5;" x1="275.5" x2="591.5" y1="81" y2="81"/><ellipse cx="285.5" cy="94.6484" fill="#84BE84" rx="3" ry="3" style="stroke:#038048;stroke-width:1.0;"/><text fill="#000000" font-family="sans-serif" font-size="14" lengthAdjust="spacing" text-decoration="underline" textLength="286" x="294.5" y="97.9951">LibraryContextPtr create_library_context();</text><ellipse cx="285.5" cy="110.9453" fill="#84BE84" rx="3" ry="3" style="stroke:#038048;stroke-width:1.0;"/><text fill="#000000" font-family="sans-serif" font-size="14" lengthAdjust="spacing" text-decoration="underline" textLength="180" x="294.5" y="114.292">ILibPtr create_default_lib();</text><ellipse cx="285.5" cy="127.2422" fill="#84BE84" rx="3" ry="3" style="stroke:#038048;stroke-width:1.0;"/><text fill="#000000" font-family="sans-serif" font-size="14" lengthAdjust="spacing" text-decoration="underline" textLength="292" x="294.5" y="130.5889">ILibPtr create_library(LibraryContextPtr ctx);</text></g><!--class LibMain--><g id="elem_LibMain"><rect codeLine="18" fill="#F1F1F1" height="80.5938" id="LibMain" rx="2.5" ry="2.5" style="stroke:#181818;stroke-width:0.5;" width="251" x="525" y="511"/><ellipse cx="620.75" cy="527" fill="#ADD1B2" rx="11" ry="11" style="stroke:#181818;stroke-width:1.0;"/><path d="M623.7188,532.6406 Q623.1406,532.9375 622.5,533.0781 Q621.8594,533.2344 621.1563,533.2344 Q618.6563,533.2344 617.3281,531.5938 Q616.0156,529.9375 616.0156,526.8125 Q616.0156,523.6875 617.3281,522.0313 Q618.6563,520.375 621.1563,520.375 Q621.8594,520.375 622.5,520.5313 Q623.1563,520.6875 623.7188,520.9844 L623.7188,523.7031 Q623.0938,523.125 622.5,522.8594 Q621.9063,522.5781 621.2813,522.5781 Q619.9375,522.5781 619.25,523.6563 Q618.5625,524.7188 618.5625,526.8125 Q618.5625,528.9063 619.25,529.9844 Q619.9375,531.0469 621.2813,531.0469 Q621.9063,531.0469 622.5,530.7813 Q623.0938,530.5 623.7188,529.9219 L623.7188,532.6406 Z " fill="#000000"/><text fill="#000000" font-family="sans-serif" font-size="14" lengthAdjust="spacing" textLength="51" x="641.25" y="531.8467">LibMain</text><line style="stroke:#181818;stroke-width:0.5;" x1="526" x2="775" y1="543" y2="543"/><line style="stroke:#181818;stroke-width:0.5;" x1="526" x2="775" y1="551" y2="551"/><ellipse cx="536" cy="564.6484" fill="#84BE84" rx="3" ry="3" style="stroke:#038048;stroke-width:1.0;"/><text fill="#000000" font-family="sans-serif" font-size="14" font-style="italic" lengthAdjust="spacing" textLength="225" x="545" y="567.9951">bool libcall(LibraryContextPtr ctx)</text><ellipse cx="536" cy="580.9453" fill="#84BE84" rx="3" ry="3" style="stroke:#038048;stroke-width:1.0;"/><text fill="#000000" font-family="sans-serif" font-size="14" lengthAdjust="spacing" text-decoration="underline" textLength="128" x="545" y="584.292">LibMainPtr create()</text></g><!--class LibFactory--><g id="elem_LibFactory"><rect codeLine="23" fill="#F1F1F1" height="113.1875" id="LibFactory" rx="2.5" ry="2.5" style="stroke:#181818;stroke-width:0.5;" width="378" x="505.5" y="653"/><ellipse cx="655.75" cy="669" fill="#ADD1B2" rx="11" ry="11" style="stroke:#181818;stroke-width:1.0;"/><path d="M658.7188,674.6406 Q658.1406,674.9375 657.5,675.0781 Q656.8594,675.2344 656.1563,675.2344 Q653.6563,675.2344 652.3281,673.5938 Q651.0156,671.9375 651.0156,668.8125 Q651.0156,665.6875 652.3281,664.0313 Q653.6563,662.375 656.1563,662.375 Q656.8594,662.375 657.5,662.5313 Q658.1563,662.6875 658.7188,662.9844 L658.7188,665.7031 Q658.0938,665.125 657.5,664.8594 Q656.9063,664.5781 656.2813,664.5781 Q654.9375,664.5781 654.25,665.6563 Q653.5625,666.7188 653.5625,668.8125 Q653.5625,670.9063 654.25,671.9844 Q654.9375,673.0469 656.2813,673.0469 Q656.9063,673.0469 657.5,672.7813 Q658.0938,672.5 658.7188,671.9219 L658.7188,674.6406 Z " fill="#000000"/><text fill="#000000" font-family="sans-serif" font-size="14" lengthAdjust="spacing" textLength="69" x="676.25" y="673.8467">LibFactory</text><line style="stroke:#181818;stroke-width:0.5;" x1="506.5" x2="882.5" y1="685" y2="685"/><line style="stroke:#181818;stroke-width:0.5;" x1="506.5" x2="882.5" y1="693" y2="693"/><ellipse cx="516.5" cy="706.6484" fill="#84BE84" rx="3" ry="3" style="stroke:#038048;stroke-width:1.0;"/><text fill="#000000" font-family="sans-serif" font-size="14" font-style="italic" lengthAdjust="spacing" textLength="176" x="525.5" y="709.9951">ILibPtr create_default_lib()</text><ellipse cx="516.5" cy="722.9453" fill="#84BE84" rx="3" ry="3" style="stroke:#038048;stroke-width:1.0;"/><text fill="#000000" font-family="sans-serif" font-size="14" font-style="italic" lengthAdjust="spacing" textLength="291" x="525.5" y="726.292">LibraryContextPtr create_default_context()</text><ellipse cx="516.5" cy="739.2422" fill="#84BE84" rx="3" ry="3" style="stroke:#038048;stroke-width:1.0;"/><text fill="#000000" font-family="sans-serif" font-size="14" font-style="italic" lengthAdjust="spacing" textLength="352" x="525.5" y="742.5889">ILibPtr create_appropriate_lib(LibraryContextPtr ctx)</text><ellipse cx="516.5" cy="755.5391" fill="#84BE84" rx="3" ry="3" style="stroke:#038048;stroke-width:1.0;"/><text fill="#000000" font-family="sans-serif" font-size="14" lengthAdjust="spacing" text-decoration="underline" textLength="199" x="525.5" y="758.8857">LibFactoryPtr create_factory()</text></g><g id="elem_GMN9"><path d="M6,46.5 L6,132.1641 A0,0 0 0 0 6,132.1641 L239,132.1641 A0,0 0 0 0 239,132.1641 L239,93.5 L274.43,89.5 L239,85.5 L239,56.5 L229,46.5 L6,46.5 A0,0 0 0 0 6,46.5 " fill="#FEFFDD" style="stroke:#181818;stroke-width:0.5;"/><path d="M229,46.5 L229,56.5 L239,56.5 L229,46.5 " fill="#FEFFDD" style="stroke:#181818;stroke-width:0.5;"/><text fill="#000000" font-family="sans-serif" font-size="13" lengthAdjust="spacing" textLength="91" x="12" y="63.5669">The facade for</text><text fill="#000000" font-family="sans-serif" font-size="13" lengthAdjust="spacing" textLength="173" x="12" y="78.6997">the library implementation.</text><text fill="#000000" font-family="sans-serif" font-size="13" lengthAdjust="spacing" textLength="115" x="12" y="93.8325">Creates instances</text><text fill="#000000" font-family="sans-serif" font-size="13" lengthAdjust="spacing" textLength="212" x="12" y="108.9653">of LibMain through the LibFactory</text><text fill="#000000" font-family="sans-serif" font-size="13" lengthAdjust="spacing" textLength="176" x="12" y="124.0981">to be used by the end user.</text></g><g id="elem_GMN12"><path d="M945,215 L945,238.5 L525.58,242.5 L945,246.5 L945,270.3984 A0,0 0 0 0 945,270.3984 L1120,270.3984 A0,0 0 0 0 1120,270.3984 L1120,225 L1110,215 L945,215 A0,0 0 0 0 945,215 " fill="#FEFFDD" style="stroke:#181818;stroke-width:0.5;"/><path d="M1110,215 L1110,225 L1120,225 L1110,215 " fill="#FEFFDD" style="stroke:#181818;stroke-width:0.5;"/><text fill="#000000" font-family="sans-serif" font-size="13" lengthAdjust="spacing" textLength="109" x="951" y="232.0669">Possible required</text><text fill="#000000" font-family="sans-serif" font-size="13" lengthAdjust="spacing" textLength="107" x="951" y="247.1997">data placeholder</text><text fill="#000000" font-family="sans-serif" font-size="13" lengthAdjust="spacing" textLength="154" x="951" y="262.3325">to execute some libcalls</text></g><g id="elem_GMN15"><path d="M213.5,531.5 L213.5,571.7656 L459.5,571.7656 L459.5,541.5 L449.5,531.5 L213.5,531.5 " fill="#FEFFDD" style="stroke:#181818;stroke-width:0.5;"/><path d="M449.5,531.5 L449.5,541.5 L459.5,541.5 L449.5,531.5 " fill="#FEFFDD" style="stroke:#181818;stroke-width:1.0;"/><text fill="#000000" font-family="sans-serif" font-size="13" lengthAdjust="spacing" textLength="130" x="219.5" y="548.5669">The particular library</text><text fill="#000000" font-family="sans-serif" font-size="13" lengthAdjust="spacing" textLength="225" x="219.5" y="563.6997">implementation interface declearer</text></g><g id="elem_GMN18"><path d="M944.5,524 L944.5,547.5 L776.38,551.5 L944.5,555.5 L944.5,579.3984 A0,0 0 0 0 944.5,579.3984 L1204.5,579.3984 A0,0 0 0 0 1204.5,579.3984 L1204.5,534 L1194.5,524 L944.5,524 A0,0 0 0 0 944.5,524 " fill="#FEFFDD" style="stroke:#181818;stroke-width:0.5;"/><path d="M1194.5,524 L1194.5,534 L1204.5,534 L1194.5,524 " fill="#FEFFDD" style="stroke:#181818;stroke-width:0.5;"/><text fill="#000000" font-family="sans-serif" font-size="13" lengthAdjust="spacing" textLength="239" x="950.5" y="541.0669">The particular library implementation.</text><text fill="#000000" font-family="sans-serif" font-size="13" lengthAdjust="spacing" textLength="211" x="950.5" y="556.1997">Is created by LibFactory to return</text><text fill="#000000" font-family="sans-serif" font-size="13" lengthAdjust="spacing" textLength="214" x="950.5" y="571.3325">by LibraryFacade to the end user.</text></g><g id="elem_GMN21"><path d="M513,829 L513,854.1328 A0,0 0 0 0 513,854.1328 L876,854.1328 A0,0 0 0 0 876,854.1328 L876,839 L866,829 L698.5,829 L694.5,766.01 L690.5,829 L513,829 A0,0 0 0 0 513,829 " fill="#FEFFDD" style="stroke:#181818;stroke-width:0.5;"/><path d="M866,829 L866,839 L876,839 L866,829 " fill="#FEFFDD" style="stroke:#181818;stroke-width:0.5;"/><text fill="#000000" font-family="sans-serif" font-size="13" lengthAdjust="spacing" textLength="342" x="519" y="846.0669">The factory to create library implementations objects.</text></g><!--link ILib to GMN15--><g id="link_ILib_GMN15"><path d="M376.38,411.02 C369.74,420.81 363.1,431.96 358.5,443 C346.26,472.36 340.63,509.16 338.19,531.2 " fill="none" id="ILib-GMN15" style="stroke:#181818;stroke-width:1.0;stroke-dasharray:7.0,7.0;"/></g><!--reverse link ILib to LibMain--><g id="link_ILib_LibMain"><path codeLine="39" d="M381.3653,428.482 C376.3653,444.932 379.73,447.09 391.5,460 C404.43,474.19 459,462.9 477.5,468 C513.43,477.9 551.03,494.93 581.97,510.95 " fill="none" id="ILib-backto-LibMain" style="stroke:#181818;stroke-width:1.0;"/><polygon fill="none" points="386.6,411.26,375.6247,426.7371,387.106,430.2269,386.6,411.26" style="stroke:#181818;stroke-width:1.0;"/><text fill="#000000" font-family="sans-serif" font-size="13" lengthAdjust="spacing" textLength="165" x="392.5" y="456.0669">Particular implementation</text></g><!--reverse link LibraryContext to ILib--><g id="link_LibraryContext_ILib"><path codeLine="41" d="M447.7447,272.0991 C437.8547,294.2591 425.31,322.38 414.38,346.88 " fill="none" id="LibraryContext-backto-ILib" style="stroke:#181818;stroke-width:1.0;"/><polygon fill="#181818" points="450.19,266.62,442.8693,273.2084,448.1522,271.1859,450.1748,276.4688,450.19,266.62" style="stroke:#181818;stroke-width:1.0;"/></g><!--reverse link LibraryContext to LibMain--><g id="link_LibraryContext_LibMain"><path codeLine="42" d="M485.2527,271.3014 C502.9227,291.6614 524.44,317.91 543.5,347 C579.16,401.42 612.79,469.04 632.51,510.99 " fill="none" id="LibraryContext-backto-LibMain" style="stroke:#181818;stroke-width:1.0;"/><polygon fill="#181818" points="481.32,266.77,484.1981,276.1889,484.5973,270.5462,490.24,270.9453,481.32,266.77" style="stroke:#181818;stroke-width:1.0;"/></g><!--link LibraryFacade to LibraryContext--><g id="link_LibraryFacade_LibraryContext"><path codeLine="44" d="M386.32,138.24 C377.15,153.11 372.54,169.63 380.5,185 C387.62,198.74 394.81,206.4885 407.54,215.0985 " fill="none" id="LibraryFacade-to-LibraryContext" style="stroke:#181818;stroke-width:1.0;stroke-dasharray:7.0,7.0;"/><polygon fill="#181818" points="412.51,218.46,407.296,210.1045,408.3684,215.6588,402.8141,216.7311,412.51,218.46" style="stroke:#181818;stroke-width:1.0;"/><text fill="#000000" font-family="sans-serif" font-size="13" lengthAdjust="spacing" textLength="229" x="381.5" y="181.0669">implicitly creates with LibraryFacade</text></g><!--link LibraryFacade to LibMain--><g id="link_LibraryFacade_LibMain"><path codeLine="45" d="M585.02,138.29 C596.65,146.66 607.11,156.48 615.5,168 C625.5,181.73 641.3581,409.9128 647.5781,504.9328 " fill="none" id="LibraryFacade-to-LibMain" style="stroke:#181818;stroke-width:1.0;stroke-dasharray:7.0,7.0;"/><polygon fill="#181818" points="647.97,510.92,651.3736,501.6779,647.6434,505.9307,643.3907,502.2005,647.97,510.92" style="stroke:#181818;stroke-width:1.0;"/><text fill="#000000" font-family="sans-serif" font-size="13" lengthAdjust="spacing" textLength="229" x="634.5" y="313.0669">Implicitly creates with LibraryFacade</text></g><!--link LibraryFacade to LibFactory--><g id="link_LibraryFacade_LibFactory"><path codeLine="46" d="M592.72,112.44 C724.95,135.28 891.5,176.88 891.5,241.5 C891.5,241.5 891.5,241.5 891.5,552.5 C891.5,595.58 867.1603,625.2791 831.1503,649.6291 " fill="none" id="LibraryFacade-to-LibFactory" style="stroke:#181818;stroke-width:1.0;"/><polygon fill="#181818" points="826.18,652.99,835.8761,651.2621,830.3219,650.1892,831.3949,644.635,826.18,652.99" style="stroke:#181818;stroke-width:1.0;"/><text fill="#000000" font-family="sans-serif" font-size="13" lengthAdjust="spacing" textLength="50" x="892.5" y="383.5669">Creates</text></g><!--link LibMain to LibFactory--><g id="link_LibMain_LibFactory"><path codeLine="48" d="M661.72,592.27 C666.91,610.68 671.5411,627.1053 677.1911,647.1353 " fill="none" id="LibMain-to-LibFactory" style="stroke:#181818;stroke-width:1.0;"/><polygon fill="#181818" points="678.82,652.91,680.2264,643.1621,677.4626,648.0978,672.5269,645.3339,678.82,652.91" style="stroke:#181818;stroke-width:1.0;"/></g><!--SRC=[dLHVQzim47_FfxZ7bE5yWBJqOOL1O8DG-cWeidoErIcITpgpX2xVVP8i9xRZhACl0UdkVlVx8wSHygVO8NnN1GawPj-452N2-m9058v9I0QfXNEmyItn7k3BUryxGM6j1gqAARHU9fGdQnWFl6K2oOSxFtDQ-9yEPzmJ4Q-h0nfXdMF1IfvW1fzGCBxghl0gkyhoxduo6TWF-akiHAivp7tOcx1lYBkF_Bs2PkBaPjzetAC9eDP4AMU9FuGod_PoOaZ0kh1TNhljlMHBnvbz_pBbglccz_tOsVkFzeYc8TkGIkR-jz8aP81KTJT9j9TjBFi4i6AmrUGjhU6bHgYwGsKfD-pFALnGexHMkNcA6nmeunaOYIut7MJCZckoxQw6075XvY4j50YjmnAAOwoYASEPLlFa-izW3Llhd2eq0k6lLX6MkIa52sYqa5XRNI95V3oWR3sGitli7ulhiBzQPhiFwC7nJd0ZoFlNQa6zrjoCnNg9ZEIDGIXHQXI4bCW-grtTiuswRs5U-xTnAQJenE0PUWc4t9B9JLSOPEHhOyyciYumvpHxp6xP3JuERF66afrF8VwFFVp9ie6exKNGU72ncEJquES2mjnzmZlF956hrUDrsc6DaehrCJ5ty5jnFVPZ7YXntdm28SiUXr6i8RtoI3dYZZiMVm40]--></g></svg>