<?xml version="1.0" encoding="us-ascii" standalone="no"?><svg xmlns="http://www.w3.org/2000/svg" xmlns:xlink="http://www.w3.org/1999/xlink" contentStyleType="text/css" height="686px" preserveAspectRatio="none" style="width:2331px;height:686px;background:#FFFFFF;" version="1.1" viewBox="0 0 2331 686" width="2331px" zoomAndPan="magnify"><defs/><g><!--cluster Applications-hierarchy--><g id="cluster_Applications-hierarchy"><path d="M8.5,308.5 L186.5,308.5 A3.75,3.75 0 0 1 189,311 L196,330.7969 L1197.5,330.7969 A2.5,2.5 0 0 1 1200,333.2969 L1200,635.5 A2.5,2.5 0 0 1 1197.5,638 L8.5,638 A2.5,2.5 0 0 1 6,635.5 L6,311 A2.5,2.5 0 0 1 8.5,308.5 " fill="none" style="stroke:#000000;stroke-width:1.5;"/><line style="stroke:#000000;stroke-width:1.5;" x1="6" x2="196" y1="330.7969" y2="330.7969"/><text fill="#000000" font-family="sans-serif" font-size="14" font-weight="bold" lengthAdjust="spacing" textLength="177" x="10" y="323.4951">Applications-hierarchy</text></g><!--cluster Facade--><g id="cluster_Facade"><path d="M571.5,6 L628.5,6 A3.75,3.75 0 0 1 631,8.5 L638,28.2969 L1256.5,28.2969 A2.5,2.5 0 0 1 1259,30.7969 L1259,249.5 A2.5,2.5 0 0 1 1256.5,252 L571.5,252 A2.5,2.5 0 0 1 569,249.5 L569,8.5 A2.5,2.5 0 0 1 571.5,6 " fill="none" style="stroke:#000000;stroke-width:1.5;"/><line style="stroke:#000000;stroke-width:1.5;" x1="569" x2="638" y1="28.2969" y2="28.2969"/><text fill="#000000" font-family="sans-serif" font-size="14" font-weight="bold" lengthAdjust="spacing" textLength="56" x="573" y="20.9951">Facade</text></g><!--cluster CMD-flags-parser--><g id="cluster_CMD-flags-parser"><path d="M1226.5,276 L1364.5,276 A3.75,3.75 0 0 1 1367,278.5 L1374,298.2969 L2321.5,298.2969 A2.5,2.5 0 0 1 2324,300.7969 L2324,676.5 A2.5,2.5 0 0 1 2321.5,679 L1226.5,679 A2.5,2.5 0 0 1 1224,676.5 L1224,278.5 A2.5,2.5 0 0 1 1226.5,276 " fill="none" style="stroke:#000000;stroke-width:1.5;"/><line style="stroke:#000000;stroke-width:1.5;" x1="1224" x2="1374" y1="298.2969" y2="298.2969"/><text fill="#000000" font-family="sans-serif" font-size="14" font-weight="bold" lengthAdjust="spacing" textLength="137" x="1228" y="290.9951">CMD-flags-parser</text></g><!--class IApplication--><g id="elem_IApplication"><rect codeLine="3" fill="#F1F1F1" height="80.5938" id="IApplication" rx="2.5" ry="2.5" style="stroke:#181818;stroke-width:0.5;" width="364" x="426" y="343.5"/><ellipse cx="563.75" cy="359.5" fill="#A9DCDF" rx="11" ry="11" style="stroke:#181818;stroke-width:1.0;"/><path d="M563.8594,354.8438 L562.7031,359.9219 L565.0313,359.9219 L563.8594,354.8438 Z M562.375,352.6094 L565.3594,352.6094 L568.7188,365 L566.2656,365 L565.5,361.9375 L562.2188,361.9375 L561.4688,365 L559.0313,365 L562.375,352.6094 Z " fill="#000000"/><text fill="#000000" font-family="sans-serif" font-size="14" font-style="italic" lengthAdjust="spacing" textLength="80" x="584.25" y="364.3467">IApplication</text><line style="stroke:#181818;stroke-width:0.5;" x1="427" x2="789" y1="375.5" y2="375.5"/><ellipse cx="437" cy="389.1484" fill="none" rx="3" ry="3" style="stroke:#038048;stroke-width:1.0;"/><text fill="#000000" font-family="sans-serif" font-size="14" lengthAdjust="spacing" text-decoration="underline" textLength="263" x="446" y="392.4951">inline constexpr const int INVALID = 1;</text><line style="stroke:#181818;stroke-width:0.5;" x1="427" x2="789" y1="399.7969" y2="399.7969"/><ellipse cx="437" cy="413.4453" fill="#84BE84" rx="3" ry="3" style="stroke:#038048;stroke-width:1.0;"/><text fill="#000000" font-family="sans-serif" font-size="14" font-style="italic" lengthAdjust="spacing" textLength="338" x="446" y="416.792">int run(std::shared_ptr&lt;ApplicationContext&gt; ctx)</text></g><!--class Application--><g id="elem_Application"><rect codeLine="9" fill="#F1F1F1" height="64.2969" id="Application" rx="2.5" ry="2.5" style="stroke:#181818;stroke-width:0.5;" width="364" x="22" y="558"/><ellipse cx="162.25" cy="574" fill="#ADD1B2" rx="11" ry="11" style="stroke:#181818;stroke-width:1.0;"/><path d="M165.2188,579.6406 Q164.6406,579.9375 164,580.0781 Q163.3594,580.2344 162.6563,580.2344 Q160.1563,580.2344 158.8281,578.5938 Q157.5156,576.9375 157.5156,573.8125 Q157.5156,570.6875 158.8281,569.0313 Q160.1563,567.375 162.6563,567.375 Q163.3594,567.375 164,567.5313 Q164.6563,567.6875 165.2188,567.9844 L165.2188,570.7031 Q164.5938,570.125 164,569.8594 Q163.4063,569.5781 162.7813,569.5781 Q161.4375,569.5781 160.75,570.6563 Q160.0625,571.7188 160.0625,573.8125 Q160.0625,575.9063 160.75,576.9844 Q161.4375,578.0469 162.7813,578.0469 Q163.4063,578.0469 164,577.7813 Q164.5938,577.5 165.2188,576.9219 L165.2188,579.6406 Z " fill="#000000"/><text fill="#000000" font-family="sans-serif" font-size="14" lengthAdjust="spacing" textLength="75" x="182.75" y="578.8467">Application</text><line style="stroke:#181818;stroke-width:0.5;" x1="23" x2="385" y1="590" y2="590"/><line style="stroke:#181818;stroke-width:0.5;" x1="23" x2="385" y1="598" y2="598"/><ellipse cx="33" cy="611.6484" fill="#84BE84" rx="3" ry="3" style="stroke:#038048;stroke-width:1.0;"/><text fill="#000000" font-family="sans-serif" font-size="14" font-style="italic" lengthAdjust="spacing" textLength="338" x="42" y="614.9951">int run(std::shared_ptr&lt;ApplicationContext&gt; ctx)</text></g><!--class ApplicationHelpPrinter--><g id="elem_ApplicationHelpPrinter"><rect codeLine="13" fill="#F1F1F1" height="64.2969" id="ApplicationHelpPrinter" rx="2.5" ry="2.5" style="stroke:#181818;stroke-width:0.5;" width="364" x="421" y="558"/><ellipse cx="523.25" cy="574" fill="#ADD1B2" rx="11" ry="11" style="stroke:#181818;stroke-width:1.0;"/><path d="M526.2188,579.6406 Q525.6406,579.9375 525,580.0781 Q524.3594,580.2344 523.6563,580.2344 Q521.1563,580.2344 519.8281,578.5938 Q518.5156,576.9375 518.5156,573.8125 Q518.5156,570.6875 519.8281,569.0313 Q521.1563,567.375 523.6563,567.375 Q524.3594,567.375 525,567.5313 Q525.6563,567.6875 526.2188,567.9844 L526.2188,570.7031 Q525.5938,570.125 525,569.8594 Q524.4063,569.5781 523.7813,569.5781 Q522.4375,569.5781 521.75,570.6563 Q521.0625,571.7188 521.0625,573.8125 Q521.0625,575.9063 521.75,576.9844 Q522.4375,578.0469 523.7813,578.0469 Q524.4063,578.0469 525,577.7813 Q525.5938,577.5 526.2188,576.9219 L526.2188,579.6406 Z " fill="#000000"/><text fill="#000000" font-family="sans-serif" font-size="14" lengthAdjust="spacing" textLength="151" x="543.75" y="578.8467">ApplicationHelpPrinter</text><line style="stroke:#181818;stroke-width:0.5;" x1="422" x2="784" y1="590" y2="590"/><line style="stroke:#181818;stroke-width:0.5;" x1="422" x2="784" y1="598" y2="598"/><ellipse cx="432" cy="611.6484" fill="#84BE84" rx="3" ry="3" style="stroke:#038048;stroke-width:1.0;"/><text fill="#000000" font-family="sans-serif" font-size="14" font-style="italic" lengthAdjust="spacing" textLength="338" x="441" y="614.9951">int run(std::shared_ptr&lt;ApplicationContext&gt; ctx)</text></g><!--class ApplicationVersionPrinter--><g id="elem_ApplicationVersionPrinter"><rect codeLine="17" fill="#F1F1F1" height="64.2969" id="ApplicationVersionPrinter" rx="2.5" ry="2.5" style="stroke:#181818;stroke-width:0.5;" width="364" x="820" y="558"/><ellipse cx="911.75" cy="574" fill="#ADD1B2" rx="11" ry="11" style="stroke:#181818;stroke-width:1.0;"/><path d="M914.7188,579.6406 Q914.1406,579.9375 913.5,580.0781 Q912.8594,580.2344 912.1563,580.2344 Q909.6563,580.2344 908.3281,578.5938 Q907.0156,576.9375 907.0156,573.8125 Q907.0156,570.6875 908.3281,569.0313 Q909.6563,567.375 912.1563,567.375 Q912.8594,567.375 913.5,567.5313 Q914.1563,567.6875 914.7188,567.9844 L914.7188,570.7031 Q914.0938,570.125 913.5,569.8594 Q912.9063,569.5781 912.2813,569.5781 Q910.9375,569.5781 910.25,570.6563 Q909.5625,571.7188 909.5625,573.8125 Q909.5625,575.9063 910.25,576.9844 Q910.9375,578.0469 912.2813,578.0469 Q912.9063,578.0469 913.5,577.7813 Q914.0938,577.5 914.7188,576.9219 L914.7188,579.6406 Z " fill="#000000"/><text fill="#000000" font-family="sans-serif" font-size="14" lengthAdjust="spacing" textLength="172" x="932.25" y="578.8467">ApplicationVersionPrinter</text><line style="stroke:#181818;stroke-width:0.5;" x1="821" x2="1183" y1="590" y2="590"/><line style="stroke:#181818;stroke-width:0.5;" x1="821" x2="1183" y1="598" y2="598"/><ellipse cx="831" cy="611.6484" fill="#84BE84" rx="3" ry="3" style="stroke:#038048;stroke-width:1.0;"/><text fill="#000000" font-family="sans-serif" font-size="14" font-style="italic" lengthAdjust="spacing" textLength="338" x="840" y="614.9951">int run(std::shared_ptr&lt;ApplicationContext&gt; ctx)</text></g><!--class ApplicationFactory--><g id="elem_ApplicationFactory"><rect codeLine="32" fill="#F1F1F1" height="194.6719" id="ApplicationFactory" rx="2.5" ry="2.5" style="stroke:#181818;stroke-width:0.5;" width="657" x="585.5" y="41"/><ellipse cx="847.25" cy="57" fill="#ADD1B2" rx="11" ry="11" style="stroke:#181818;stroke-width:1.0;"/><path d="M850.2188,62.6406 Q849.6406,62.9375 849,63.0781 Q848.3594,63.2344 847.6563,63.2344 Q845.1563,63.2344 843.8281,61.5938 Q842.5156,59.9375 842.5156,56.8125 Q842.5156,53.6875 843.8281,52.0313 Q845.1563,50.375 847.6563,50.375 Q848.3594,50.375 849,50.5313 Q849.6563,50.6875 850.2188,50.9844 L850.2188,53.7031 Q849.5938,53.125 849,52.8594 Q848.4063,52.5781 847.7813,52.5781 Q846.4375,52.5781 845.75,53.6563 Q845.0625,54.7188 845.0625,56.8125 Q845.0625,58.9063 845.75,59.9844 Q846.4375,61.0469 847.7813,61.0469 Q848.4063,61.0469 849,60.7813 Q849.5938,60.5 850.2188,59.9219 L850.2188,62.6406 Z " fill="#000000"/><text fill="#000000" font-family="sans-serif" font-size="14" lengthAdjust="spacing" textLength="125" x="867.75" y="61.8467">ApplicationFactory</text><line style="stroke:#181818;stroke-width:0.5;" x1="586.5" x2="1241.5" y1="73" y2="73"/><line style="stroke:#181818;stroke-width:0.5;" x1="586.5" x2="1241.5" y1="81" y2="81"/><ellipse cx="596.5" cy="94.6484" fill="#84BE84" rx="3" ry="3" style="stroke:#038048;stroke-width:1.0;"/><text fill="#000000" font-family="sans-serif" font-size="14" font-style="italic" lengthAdjust="spacing" textLength="608" x="605.5" y="97.9951">std::shared_ptr&lt;ApplicationContext&gt; create_default_context(int&amp; gargc, char**&amp; gargv)</text><ellipse cx="596.5" cy="110.9453" fill="#84BE84" rx="3" ry="3" style="stroke:#038048;stroke-width:1.0;"/><text fill="#000000" font-family="sans-serif" font-size="14" font-style="italic" lengthAdjust="spacing" textLength="461" x="605.5" y="114.292">std::shared_ptr&lt;CommandLineParser&gt; create_default_arg_parser()</text><ellipse cx="596.5" cy="127.2422" fill="#84BE84" rx="3" ry="3" style="stroke:#038048;stroke-width:1.0;"/><text fill="#000000" font-family="sans-serif" font-size="14" font-style="italic" lengthAdjust="spacing" textLength="401" x="605.5" y="130.5889">std::shared_ptr&lt;IApplication&gt; create_default_application()</text><ellipse cx="596.5" cy="143.5391" fill="#84BE84" rx="3" ry="3" style="stroke:#038048;stroke-width:1.0;"/><text fill="#000000" font-family="sans-serif" font-size="14" font-style="italic" lengthAdjust="spacing" textLength="355" x="605.5" y="146.8857">std::shared_ptr&lt;IApplication&gt; create_help_printer()</text><ellipse cx="596.5" cy="159.8359" fill="#84BE84" rx="3" ry="3" style="stroke:#038048;stroke-width:1.0;"/><text fill="#000000" font-family="sans-serif" font-size="14" font-style="italic" lengthAdjust="spacing" textLength="375" x="605.5" y="163.1826">std::shared_ptr&lt;IApplication&gt; create_version_printer()</text><ellipse cx="596.5" cy="176.1328" fill="#84BE84" rx="3" ry="3" style="stroke:#038048;stroke-width:1.0;"/><text fill="#000000" font-family="sans-serif" font-size="14" font-style="italic" lengthAdjust="spacing" textLength="554" x="605.5" y="179.4795">std::shared_ptr&lt;ApplicationContext&gt; create_context(int&amp; gargc, char**&amp; gargv)</text><ellipse cx="596.5" cy="192.4297" fill="#84BE84" rx="3" ry="3" style="stroke:#038048;stroke-width:1.0;"/><text fill="#000000" font-family="sans-serif" font-size="14" font-style="italic" lengthAdjust="spacing" textLength="631" x="605.5" y="195.7764">std::shared_ptr&lt;IApplication&gt; create_application(std::shared_ptr&lt;ApplicationContext&gt; ctx)</text><ellipse cx="596.5" cy="208.7266" fill="#84BE84" rx="3" ry="3" style="stroke:#038048;stroke-width:1.0;"/><text fill="#000000" font-family="sans-serif" font-size="14" font-style="italic" lengthAdjust="spacing" textLength="231" x="605.5" y="212.0732">int run(int&amp; gargc, char**&amp; gargv)</text><ellipse cx="596.5" cy="225.0234" fill="#84BE84" rx="3" ry="3" style="stroke:#038048;stroke-width:1.0;"/><text fill="#000000" font-family="sans-serif" font-size="14" lengthAdjust="spacing" text-decoration="underline" textLength="265" x="605.5" y="228.3701">int execute(int&amp; gargc, char**&amp; gargv)</text></g><!--class CommandLineParser--><g id="elem_CommandLineParser"><rect codeLine="46" fill="#F1F1F1" height="145.7813" id="CommandLineParser" rx="2.5" ry="2.5" style="stroke:#181818;stroke-width:0.5;" width="1068" x="1240" y="311"/><ellipse cx="1698.25" cy="327" fill="#ADD1B2" rx="11" ry="11" style="stroke:#181818;stroke-width:1.0;"/><path d="M1701.2188,332.6406 Q1700.6406,332.9375 1700,333.0781 Q1699.3594,333.2344 1698.6563,333.2344 Q1696.1563,333.2344 1694.8281,331.5938 Q1693.5156,329.9375 1693.5156,326.8125 Q1693.5156,323.6875 1694.8281,322.0313 Q1696.1563,320.375 1698.6563,320.375 Q1699.3594,320.375 1700,320.5313 Q1700.6563,320.6875 1701.2188,320.9844 L1701.2188,323.7031 Q1700.5938,323.125 1700,322.8594 Q1699.4063,322.5781 1698.7813,322.5781 Q1697.4375,322.5781 1696.75,323.6563 Q1696.0625,324.7188 1696.0625,326.8125 Q1696.0625,328.9063 1696.75,329.9844 Q1697.4375,331.0469 1698.7813,331.0469 Q1699.4063,331.0469 1700,330.7813 Q1700.5938,330.5 1701.2188,329.9219 L1701.2188,332.6406 Z " fill="#000000"/><text fill="#000000" font-family="sans-serif" font-size="14" lengthAdjust="spacing" textLength="143" x="1718.75" y="331.8467">CommandLineParser</text><line style="stroke:#181818;stroke-width:0.5;" x1="1241" x2="2307" y1="343" y2="343"/><line style="stroke:#181818;stroke-width:0.5;" x1="1241" x2="2307" y1="351" y2="351"/><ellipse cx="1251" cy="364.6484" fill="#84BE84" rx="3" ry="3" style="stroke:#038048;stroke-width:1.0;"/><text fill="#000000" font-family="sans-serif" font-size="14" font-style="italic" lengthAdjust="spacing" textLength="402" x="1260" y="367.9951">bool parse_args(std::shared_ptr&lt;ApplicationContext&gt; ctx)</text><ellipse cx="1251" cy="380.9453" fill="#84BE84" rx="3" ry="3" style="stroke:#038048;stroke-width:1.0;"/><text fill="#000000" font-family="sans-serif" font-size="14" lengthAdjust="spacing" text-decoration="underline" textLength="478" x="1260" y="384.292">std::string get_custom_logfile(const int&amp; gargc, char** const&amp; gargv)</text><polygon fill="#FFFF44" points="1251,392.2422,1255,396.2422,1251,400.2422,1247,396.2422" style="stroke:#B38D22;stroke-width:1.0;"/><text fill="#000000" font-family="sans-serif" font-size="14" font-style="italic" lengthAdjust="spacing" textLength="1042" x="1260" y="400.5889">bool parse_arg(std::shared_ptr&lt;ApplicationContext&gt; ctx, const std::string&amp; param, const bool hasNext, const std::string&amp; nextParam, int&amp; paramIndex)</text><polygon fill="#FFFF44" points="1251,408.5391,1255,412.5391,1251,416.5391,1247,412.5391" style="stroke:#B38D22;stroke-width:1.0;"/><text fill="#000000" font-family="sans-serif" font-size="14" font-style="italic" lengthAdjust="spacing" textLength="944" x="1260" y="416.8857">bool check_4_data(std::shared_ptr&lt;ApplicationContext&gt; ctx,const std::string&amp; param, const bool hasNext, const std::string&amp; nextParam)</text><polygon fill="#FFFF44" points="1251,424.8359,1255,428.8359,1251,432.8359,1247,428.8359" style="stroke:#B38D22;stroke-width:1.0;"/><text fill="#000000" font-family="sans-serif" font-size="14" font-style="italic" lengthAdjust="spacing" textLength="397" x="1260" y="433.1826">const std::set&lt;std::string&gt;&amp; get_params_requiring_data()</text><polygon fill="#FFFF44" points="1251,441.1328,1255,445.1328,1251,449.1328,1247,445.1328" style="stroke:#B38D22;stroke-width:1.0;"/><text fill="#000000" font-family="sans-serif" font-size="14" font-style="italic" lengthAdjust="spacing" textLength="306" x="1260" y="449.4795">bool requires_data(const std::string&amp; param)</text></g><!--class CMDParamNames--><g id="elem_CMDParamNames"><rect codeLine="55" fill="#F1F1F1" height="145.7813" id="CMDParamNames" rx="2.5" ry="2.5" style="stroke:#181818;stroke-width:0.5;" width="351" x="1598.5" y="517"/><ellipse cx="1707.75" cy="533" fill="#ADD1B2" rx="11" ry="11" style="stroke:#181818;stroke-width:1.0;"/><path d="M1710.7188,538.6406 Q1710.1406,538.9375 1709.5,539.0781 Q1708.8594,539.2344 1708.1563,539.2344 Q1705.6563,539.2344 1704.3281,537.5938 Q1703.0156,535.9375 1703.0156,532.8125 Q1703.0156,529.6875 1704.3281,528.0313 Q1705.6563,526.375 1708.1563,526.375 Q1708.8594,526.375 1709.5,526.5313 Q1710.1563,526.6875 1710.7188,526.9844 L1710.7188,529.7031 Q1710.0938,529.125 1709.5,528.8594 Q1708.9063,528.5781 1708.2813,528.5781 Q1706.9375,528.5781 1706.25,529.6563 Q1705.5625,530.7188 1705.5625,532.8125 Q1705.5625,534.9063 1706.25,535.9844 Q1706.9375,537.0469 1708.2813,537.0469 Q1708.9063,537.0469 1709.5,536.7813 Q1710.0938,536.5 1710.7188,535.9219 L1710.7188,538.6406 Z " fill="#000000"/><text fill="#000000" font-family="sans-serif" font-size="14" lengthAdjust="spacing" textLength="124" x="1728.25" y="537.8467">CMDParamNames</text><line style="stroke:#181818;stroke-width:0.5;" x1="1599.5" x2="1948.5" y1="549" y2="549"/><ellipse cx="1609.5" cy="562.6484" fill="none" rx="3" ry="3" style="stroke:#038048;stroke-width:1.0;"/><text fill="#000000" font-family="sans-serif" font-size="14" lengthAdjust="spacing" text-decoration="underline" textLength="279" x="1618.5" y="565.9951">inline const std::string HELPW{"--help"};</text><ellipse cx="1609.5" cy="578.9453" fill="none" rx="3" ry="3" style="stroke:#038048;stroke-width:1.0;"/><text fill="#000000" font-family="sans-serif" font-size="14" lengthAdjust="spacing" text-decoration="underline" textLength="240" x="1618.5" y="582.292">inline const std::string HELP{"-h"};</text><ellipse cx="1609.5" cy="595.2422" fill="none" rx="3" ry="3" style="stroke:#038048;stroke-width:1.0;"/><text fill="#000000" font-family="sans-serif" font-size="14" lengthAdjust="spacing" text-decoration="underline" textLength="325" x="1618.5" y="598.5889">inline const std::string VERSIONW{"--version"};</text><ellipse cx="1609.5" cy="611.5391" fill="none" rx="3" ry="3" style="stroke:#038048;stroke-width:1.0;"/><text fill="#000000" font-family="sans-serif" font-size="14" lengthAdjust="spacing" text-decoration="underline" textLength="264" x="1618.5" y="614.8857">inline const std::string VERSION{"-v"};</text><ellipse cx="1609.5" cy="627.8359" fill="none" rx="3" ry="3" style="stroke:#038048;stroke-width:1.0;"/><text fill="#000000" font-family="sans-serif" font-size="14" lengthAdjust="spacing" text-decoration="underline" textLength="325" x="1618.5" y="631.1826">inline const std::string LOGPATHW{"--log-file"};</text><ellipse cx="1609.5" cy="644.1328" fill="none" rx="3" ry="3" style="stroke:#038048;stroke-width:1.0;"/><text fill="#000000" font-family="sans-serif" font-size="14" lengthAdjust="spacing" text-decoration="underline" textLength="265" x="1618.5" y="647.4795">inline const std::string LOGPATH{"-l"};</text><line style="stroke:#181818;stroke-width:0.5;" x1="1599.5" x2="1948.5" y1="654.7813" y2="654.7813"/></g><!--class ApplicationContext--><g id="elem_ApplicationContext"><rect codeLine="22" fill="#F1F1F1" height="145.7813" id="ApplicationContext" rx="2.5" ry="2.5" style="stroke:#181818;stroke-width:0.5;" width="385" x="165.5" y="65.5"/><ellipse cx="289.25" cy="81.5" fill="#ADD1B2" rx="11" ry="11" style="stroke:#181818;stroke-width:1.0;"/><path d="M292.2188,87.1406 Q291.6406,87.4375 291,87.5781 Q290.3594,87.7344 289.6563,87.7344 Q287.1563,87.7344 285.8281,86.0938 Q284.5156,84.4375 284.5156,81.3125 Q284.5156,78.1875 285.8281,76.5313 Q287.1563,74.875 289.6563,74.875 Q290.3594,74.875 291,75.0313 Q291.6563,75.1875 292.2188,75.4844 L292.2188,78.2031 Q291.5938,77.625 291,77.3594 Q290.4063,77.0781 289.7813,77.0781 Q288.4375,77.0781 287.75,78.1563 Q287.0625,79.2188 287.0625,81.3125 Q287.0625,83.4063 287.75,84.4844 Q288.4375,85.5469 289.7813,85.5469 Q290.4063,85.5469 291,85.2813 Q291.5938,85 292.2188,84.4219 L292.2188,87.1406 Z " fill="#000000"/><text fill="#000000" font-family="sans-serif" font-size="14" lengthAdjust="spacing" textLength="129" x="309.75" y="86.3467">ApplicationContext</text><line style="stroke:#181818;stroke-width:0.5;" x1="166.5" x2="549.5" y1="97.5" y2="97.5"/><ellipse cx="176.5" cy="111.1484" fill="none" rx="3" ry="3" style="stroke:#038048;stroke-width:1.0;"/><text fill="#000000" font-family="sans-serif" font-size="14" lengthAdjust="spacing" textLength="63" x="185.5" y="114.4951">int&amp; argc</text><ellipse cx="176.5" cy="127.4453" fill="none" rx="3" ry="3" style="stroke:#038048;stroke-width:1.0;"/><text fill="#000000" font-family="sans-serif" font-size="14" lengthAdjust="spacing" textLength="89" x="185.5" y="130.792">char**&amp; argv</text><ellipse cx="176.5" cy="143.7422" fill="none" rx="3" ry="3" style="stroke:#038048;stroke-width:1.0;"/><text fill="#000000" font-family="sans-serif" font-size="14" lengthAdjust="spacing" textLength="216" x="185.5" y="147.0889">bool print_help_and_exit{false}</text><ellipse cx="176.5" cy="160.0391" fill="none" rx="3" ry="3" style="stroke:#038048;stroke-width:1.0;"/><text fill="#000000" font-family="sans-serif" font-size="14" lengthAdjust="spacing" textLength="236" x="185.5" y="163.3857">bool print_version_and_exit{false}</text><ellipse cx="176.5" cy="176.3359" fill="none" rx="3" ry="3" style="stroke:#038048;stroke-width:1.0;"/><text fill="#000000" font-family="sans-serif" font-size="14" lengthAdjust="spacing" textLength="215" x="185.5" y="179.6826">std::vector&lt;std::string&gt; errors</text><line style="stroke:#181818;stroke-width:0.5;" x1="166.5" x2="549.5" y1="186.9844" y2="186.9844"/><ellipse cx="176.5" cy="200.6328" fill="#84BE84" rx="3" ry="3" style="stroke:#038048;stroke-width:1.0;"/><text fill="#000000" font-family="sans-serif" font-size="14" lengthAdjust="spacing" textLength="359" x="185.5" y="203.9795">void push_error(const std::string&amp; errorDescription)</text></g><!--reverse link IApplication to Application--><g id="link_IApplication_Application"><path codeLine="65" d="M513.5621,432.6931 C436.4621,471.6231 336.38,522.15 265.65,557.87 " fill="none" id="IApplication-backto-Application" style="stroke:#181818;stroke-width:1.0;stroke-dasharray:7.0,7.0;"/><polygon fill="none" points="529.63,424.58,510.8577,427.3372,516.2665,438.0491,529.63,424.58" style="stroke:#181818;stroke-width:1.0;"/></g><!--reverse link IApplication to ApplicationHelpPrinter--><g id="link_IApplication_ApplicationHelpPrinter"><path codeLine="66" d="M606.5812,442.8147 C605.6312,481.7747 604.63,522.31 603.76,557.95 " fill="none" id="IApplication-backto-ApplicationHelpPrinter" style="stroke:#181818;stroke-width:1.0;stroke-dasharray:7.0,7.0;"/><polygon fill="none" points="607.02,424.82,600.583,442.6684,612.5794,442.9609,607.02,424.82" style="stroke:#181818;stroke-width:1.0;"/></g><!--reverse link IApplication to ApplicationVersionPrinter--><g id="link_IApplication_ApplicationVersionPrinter"><path codeLine="67" d="M700.415,432.8552 C775.615,471.7852 872.89,522.15 941.88,557.87 " fill="none" id="IApplication-backto-ApplicationVersionPrinter" style="stroke:#181818;stroke-width:1.0;stroke-dasharray:7.0,7.0;"/><polygon fill="none" points="684.43,424.58,697.6566,438.1836,703.1734,427.5269,684.43,424.58" style="stroke:#181818;stroke-width:1.0;"/></g><!--link ApplicationContext to IApplication--><g id="link_ApplicationContext_IApplication"><path codeLine="69" d="M431.99,211.57 C476.2,254.62 526.3719,303.4936 562.9119,339.0836 " fill="none" id="ApplicationContext-to-IApplication" style="stroke:#181818;stroke-width:1.0;"/><polygon fill="#181818" points="567.21,343.27,563.5537,334.125,563.6282,339.7813,557.9718,339.8558,567.21,343.27" style="stroke:#181818;stroke-width:1.0;"/></g><!--link ApplicationContext to Application--><g id="link_ApplicationContext_Application"><path codeLine="70" d="M305.7,211.84 C294.64,229.57 283.93,248.94 276,268 C233.87,369.24 215.1601,493.2234 208.0701,551.8734 " fill="none" id="ApplicationContext-to-Application" style="stroke:#181818;stroke-width:1.0;"/><polygon fill="#181818" points="207.35,557.83,212.4012,549.3751,207.9501,552.8661,204.459,548.415,207.35,557.83" style="stroke:#181818;stroke-width:1.0;"/></g><!--link ApplicationContext to ApplicationHelpPrinter--><g id="link_ApplicationContext_ApplicationHelpPrinter"><path codeLine="71" d="M334.2,211.72 C316.33,280.07 301.86,382.94 347,457 C377.06,506.32 426.5062,535.8298 477.8762,555.7598 " fill="none" id="ApplicationContext-to-ApplicationHelpPrinter" style="stroke:#181818;stroke-width:1.0;"/><polygon fill="#181818" points="483.47,557.93,476.5262,550.9455,478.8085,556.1215,473.6325,558.4039,483.47,557.93" style="stroke:#181818;stroke-width:1.0;"/></g><!--link ApplicationContext to ApplicationVersionPrinter--><g id="link_ApplicationContext_ApplicationVersionPrinter"><path codeLine="72" d="M359.99,211.61 C363.87,294.54 375.31,423.58 409,457 C471.88,519.37 717.17,495.16 803,517 C844.84,527.64 884.5937,541.5263 921.4237,555.7663 " fill="none" id="ApplicationContext-to-ApplicationVersionPrinter" style="stroke:#181818;stroke-width:1.0;"/><polygon fill="#181818" points="927.02,557.93,920.0681,550.9535,922.3564,556.1269,917.1831,558.4152,927.02,557.93" style="stroke:#181818;stroke-width:1.0;"/></g><!--link ApplicationContext to ApplicationFactory--><g id="link_ApplicationContext_ApplicationFactory"><path codeLine="73" d="M550.75,138.5 C562.22,138.5 567.69,138.5 579.16,138.5 " fill="none" id="ApplicationContext-to-ApplicationFactory" style="stroke:#181818;stroke-width:1.0;"/><polygon fill="#181818" points="585.16,138.5,576.16,134.5,580.16,138.5,576.16,142.5,585.16,138.5" style="stroke:#181818;stroke-width:1.0;"/></g><!--reverse link ApplicationFactory to ApplicationContext--><g id="link_ApplicationFactory_ApplicationContext"><path codeLine="79" d="M579.16,138.5 C567.69,138.5 562.22,138.5 550.75,138.5 " fill="none" id="ApplicationFactory-backto-ApplicationContext" style="stroke:#181818;stroke-width:1.0;stroke-dasharray:7.0,7.0;"/><polygon fill="#181818" points="585.16,138.5,576.16,134.5,580.16,138.5,576.16,142.5,585.16,138.5" style="stroke:#181818;stroke-width:1.0;"/></g><!--reverse link ApplicationFactory to IApplication--><g id="link_ApplicationFactory_IApplication"><path codeLine="75" d="M787.9251,239.826 C740.8751,277.266 694.34,314.3 657.81,343.36 " fill="none" id="ApplicationFactory-backto-IApplication" style="stroke:#181818;stroke-width:1.0;stroke-dasharray:7.0,7.0;"/><polygon fill="#181818" points="792.62,236.09,783.0869,238.564,788.7076,239.2033,788.0683,244.8239,792.62,236.09" style="stroke:#181818;stroke-width:1.0;"/></g><!--reverse link ApplicationFactory to Application--><g id="link_ApplicationFactory_Application"><path codeLine="76" d="M874.2682,241.6946 C870.3382,252.4346 868.54,257.6 865,268 C836.69,351.04 874.38,399.63 808,457 C670.65,575.69 580.04,472.71 404,517 C361.95,527.58 316.37,543.62 279.35,557.87 " fill="none" id="ApplicationFactory-backto-Application" style="stroke:#181818;stroke-width:1.0;stroke-dasharray:7.0,7.0;"/><polygon fill="#181818" points="876.33,236.06,869.4808,243.1374,874.6118,240.7555,876.9937,245.8865,876.33,236.06" style="stroke:#181818;stroke-width:1.0;"/></g><!--reverse link ApplicationFactory to ApplicationHelpPrinter--><g id="link_ApplicationFactory_ApplicationHelpPrinter"><path codeLine="77" d="M922.85,242.3492 C923.98,310.1492 914.8,393.59 869,457 C845.83,489.08 754.81,530.14 685.64,557.89 " fill="none" id="ApplicationFactory-backto-ApplicationHelpPrinter" style="stroke:#181818;stroke-width:1.0;stroke-dasharray:7.0,7.0;"/><polygon fill="#181818" points="922.75,236.35,918.9005,245.4154,922.8333,241.3493,926.8994,245.2821,922.75,236.35" style="stroke:#181818;stroke-width:1.0;"/></g><!--reverse link ApplicationFactory to ApplicationVersionPrinter--><g id="link_ApplicationFactory_ApplicationVersionPrinter"><path codeLine="78" d="M934.863,242.1922 C937.013,252.8822 937.97,257.73 940,268 C961.03,374.35 985.19,500.69 996.11,557.99 " fill="none" id="ApplicationFactory-backto-ApplicationVersionPrinter" style="stroke:#181818;stroke-width:1.0;stroke-dasharray:7.0,7.0;"/><polygon fill="#181818" points="933.68,236.31,931.5331,245.922,934.6659,241.2118,939.376,244.3446,933.68,236.31" style="stroke:#181818;stroke-width:1.0;"/></g><!--reverse link ApplicationFactory to CommandLineParser--><g id="link_ApplicationFactory_CommandLineParser"><path codeLine="80" d="M1248.273,234.1448 C1340.053,260.1348 1432.6,286.34 1519.41,310.92 " fill="none" id="ApplicationFactory-backto-CommandLineParser" style="stroke:#181818;stroke-width:1.0;stroke-dasharray:7.0,7.0;"/><polygon fill="#181818" points="1242.5,232.51,1250.0696,238.8108,1247.3108,233.8723,1252.2493,231.1135,1242.5,232.51" style="stroke:#181818;stroke-width:1.0;"/></g><!--reverse link CommandLineParser to CMDParamNames--><g id="link_CommandLineParser_CMDParamNames"><path codeLine="82" d="M1774,463.21 C1774,482.58 1774,497.52 1774,516.89 " fill="none" id="CommandLineParser-backto-CMDParamNames" style="stroke:#181818;stroke-width:1.0;stroke-dasharray:7.0,7.0;"/><polygon fill="#181818" points="1774,457.21,1770,466.21,1774,462.21,1778,466.21,1774,457.21" style="stroke:#181818;stroke-width:1.0;"/></g><!--SRC=[jLRVRzem47xFNs5r4g8_KcdIdbfM2K6t8Z6AjeazHgvp9553aja6KJ7-zvxjf7L80gHYJ-3SzzrzTxwpdL7sJ0CW_IoB8qPbb2R23IFWbBFmXMmSGkYJa9moILXCXI0Z2whjX5nk2ioMH8aaV9bqXVHlRaH8EVXU9ddFOWtIHC9QtX4cr-TExa58jB5jbCHH0eIX3CHatFpJNaUJMNyy6fAlvFCjahQAQIITM56JxmU8iob7Ty3_PvWPS84_9uw4iIgHSfGESObUEuJoWAa5GwyN5tgzKkkdD8r9fXHv8LR1eudlmJgIcpcD1Mnt82kJGHrAQru1aodl6VqIAS4T0SvJBXHabKO-oPOYzFIthka02zmnu248ngDC9NAkqiloLlv66VL19rN966qO-QMcg4SLamELuFamfyjOUinyx-hA1QfqLwGed5gkpWz66QIB1LPfZ3q_fLm0hmH1FrwcJTt3xkpPh7fwjttKbTxxp3JcHtqKpN6ycprRSO8jg1Lfrwh5cDNFwK5n-Tcd2R06jfImdxIr-ttmO-ZEOne8r_I9rVcLzgffV3EtogfwJRHDjz1kpIS908TZAMIwyE8qc4SnTD-EyPsapFbUgiUdHd77QhiYDMS6Ug6BmgBzXbHCa5ABJj0mDGmjMhD7YG_h1f4i1FRiVV5yAkdHEaydiwhAHeCi7ROTlKCwal0u_5r6whEHtf2UGO4me2RTEvSQTgOMDw4B46-jzzxjxrTzgNqUxiVJFviprrN7pTdsjWqFQM4Bokp-vw_HuqH7om-czcmahrgmne_Vf_tV3pecZeUhvgCz7TcnOUd3eFGgw_sxlhPllVrMwrcp7rX-c3XEpKl2TUzA3yGcJ3k8hV0mUaVcOKB-A2WbL3mKUbY2feHiJ3j8Gq8DwEQ46WXvdat8ogtWEDMBGWFj-NLU0G00]--></g></svg>